<?xml version="1.0" standalone="no"?><!DOCTYPE svg PUBLIC "-//W3C//DTD SVG 1.1//EN" "http://www.w3.org/Graphics/SVG/1.1/DTD/svg11.dtd"><svg t="1745311429719" class="icon" viewBox="0 0 1024 1024" version="1.1" xmlns="http://www.w3.org/2000/svg" p-id="4877" xmlns:xlink="http://www.w3.org/1999/xlink" width="200" height="200"><path d="M908.3904 415.8464l-121.856-212.2752a174.7968 174.7968 0 0 0-150.784-87.552l-244.7872-0.6144h-0.4096a174.848 174.848 0 0 0-150.784 87.04l-122.88 211.6608a174.7456 174.7456 0 0 0-0.4096 174.336l121.856 212.3264A174.848 174.848 0 0 0 389.12 888.064l244.7872 0.6144h0.4608a174.7968 174.7968 0 0 0 150.7328-86.784l122.88-211.712a174.7456 174.7456 0 0 0 0.4096-174.336z" fill="#7B79FF" p-id="4878"></path><path d="M488.8576 648.448a30.72 30.72 0 0 1-20.48-8.0896l-128-117.3504a30.72 30.72 0 1 1 41.5232-45.2608l101.888 93.6448 131.7376-188.3648a30.72 30.72 0 1 1 50.3296 35.2256l-151.808 217.088a30.4128 30.4128 0 0 1-21.8112 12.9024 24.9344 24.9344 0 0 1-3.3792 0.2048z" fill="#FFFFFF" p-id="4879"></path></svg>