<?xml version="1.0" standalone="no"?><!DOCTYPE svg PUBLIC "-//W3C//DTD SVG 1.1//EN" "http://www.w3.org/Graphics/SVG/1.1/DTD/svg11.dtd"><svg t="1745312050394" class="icon" viewBox="0 0 1024 1024" version="1.1" xmlns="http://www.w3.org/2000/svg" p-id="12164" xmlns:xlink="http://www.w3.org/1999/xlink" width="200" height="200"><path d="M524.84181965 130.61176468c-38.52545897-11.46097883-77.05091792-17.26051028-115.57637689-17.2605103-38.52545897 0-77.05091792 5.66144737-115.57637689 17.2605103-17.26051028 5.10911105-28.85957319 21.12686459-28.85957319 39.07779529v119.16656303c0.55233633 54.40512843 13.39415599 103.8392299 39.63013162 148.02613623 13.80840823 23.19812583 20.71261235 49.84835372 20.71261234 76.77474975V813.02329941c0 46.53433573 37.69695447 84.09320613 84.09320612 84.09320614 46.53433573 0 84.09320613-37.69695447 84.09320613-84.09320614V513.79509307c0-26.92639605 6.90420412-53.57662394 20.71261235-76.77474976 26.23597565-44.18690634 39.0777953-93.62100781 39.63013162-148.02613623v-119.16656303c0-18.08901478-11.59906291-34.10676833-28.85957321-39.21587937z" fill="#1568DA" p-id="12165"></path><path d="M524.84181965 187.50240658c-38.52545897-11.46097883-77.05091792-17.26051028-115.57637689-17.26051028-38.52545897 0-77.05091792 5.66144737-115.57637689 17.26051028-17.26051028 5.10911105-28.85957319 21.12686459-28.85957319 39.07779529v119.16656304c0.55233633 54.40512843 13.39415599 103.8392299 39.63013162 148.02613623 13.80840823 23.19812583 20.71261235 49.84835372 20.71261234 76.77474976v299.22820635c0 46.53433573 37.69695447 84.09320613 84.09320612 84.09320612 46.53433573 0 84.09320613-37.69695447 84.09320613-84.09320612V570.68573497c0-26.92639605 6.90420412-53.57662394 20.71261235-76.77474975 26.23597565-44.18690634 39.0777953-93.62100781 39.63013162-148.02613624v-119.16656302c0-18.08901478-11.59906291-34.10676833-28.85957321-39.21587938z" fill="#1568DA" p-id="12166"></path><path d="M474.30304553 91.94822163c0-29.54999362-130.07520553-29.54999362-130.07520553 0v111.29577034h130.07520553v-111.29577034z" fill="#D0E4FF" p-id="12167"></path><path d="M474.30304553 124.39798098c0-29.54999362-130.07520553-29.54999362-130.07520553 0v111.29577033h130.07520553v-111.29577033z" fill="#1568DA" p-id="12168"></path><path d="M349.33695105 98.30008942h8.83738125v44.18690633h-8.83738125zM460.35655322 98.30008942h8.83738127v44.18690633h-8.83738127zM338.29022446 162.23301953h8.83738127V259.30612939h-8.83738127zM471.26519571 162.23301953h8.83738127V259.30612939h-8.83738127z" fill="#FFFFFF" p-id="12169"></path><path d="M524.84181965 130.61176468c-38.52545897-11.46097883-77.05091792-17.26051028-115.57637689-17.2605103-38.52545897 0-77.05091792 5.66144737-115.57637689 17.2605103-17.26051028 5.10911105-28.85957319 21.12686459-28.85957319 39.07779529v56.8906419c0-17.9509307 11.737147-33.96868425 28.85957319-39.07779529 38.52545897-11.46097883 77.05091792-17.26051028 115.57637689-17.26051028 38.52545897 0 77.05091792 5.66144737 115.57637689 17.26051028 17.26051028 5.10911105 28.85957319 21.12686459 28.85957321 39.07779529v-56.8906419c0-17.9509307-11.59906291-33.96868425-28.85957321-39.07779529z" fill="#D0E4FF" p-id="12170"></path><path d="M424.73085999 925.69991058h-31.06891852c-24.85513482 0-45.15349491-20.16027601-45.15349492-45.15349491V645.3892235c0-24.85513482 20.16027601-45.15349491 45.15349492-45.15349491h31.06891852c24.85513482 0 45.15349491 20.16027601 45.15349491 45.15349491v235.15719217c0 24.9932189-20.16027601 45.15349491-45.15349491 45.15349491z" fill="#84B9FF" p-id="12171"></path><path d="M387.31007369 530.22709886m-7.31845637 0a7.31845635 7.31845635 0 1 0 14.63691272 0 7.31845635 7.31845635 0 1 0-14.63691272 0Z" fill="#84B9FF" p-id="12172"></path><path d="M431.22081185 530.22709886m-7.31845636 0a7.31845635 7.31845635 0 1 0 14.63691272 0 7.31845635 7.31845635 0 1 0-14.63691272 0Z" fill="#84B9FF" p-id="12173"></path><path d="M409.26544276 530.22709886m-7.31845636 0a7.31845635 7.31845635 0 1 0 14.63691273 0 7.31845635 7.31845635 0 1 0-14.63691273 0Z" fill="#84B9FF" p-id="12174"></path><path d="M387.31007369 552.32055203m-7.31845637 0a7.31845635 7.31845635 0 1 0 14.63691272 0 7.31845635 7.31845635 0 1 0-14.63691272 0Z" fill="#84B9FF" p-id="12175"></path><path d="M431.22081185 552.32055203m-7.31845636 0a7.31845635 7.31845635 0 1 0 14.63691272 0 7.31845635 7.31845635 0 1 0-14.63691272 0Z" fill="#84B9FF" p-id="12176"></path><path d="M409.26544276 552.32055203m-7.31845636 0a7.31845635 7.31845635 0 1 0 14.63691273 0 7.31845635 7.31845635 0 1 0-14.63691273 0Z" fill="#84B9FF" p-id="12177"></path><path d="M387.31007369 573.44741663m-7.31845637 0a7.31845635 7.31845635 0 1 0 14.63691272 0 7.31845635 7.31845635 0 1 0-14.63691272 0Z" fill="#84B9FF" p-id="12178"></path><path d="M431.22081185 573.44741663m-7.31845636 0a7.31845635 7.31845635 0 1 0 14.63691272 0 7.31845635 7.31845635 0 1 0-14.63691272 0Z" fill="#84B9FF" p-id="12179"></path><path d="M409.26544276 573.44741663m-7.31845636 0a7.31845635 7.31845635 0 1 0 14.63691273 0 7.31845635 7.31845635 0 1 0-14.63691273 0Z" fill="#84B9FF" p-id="12180"></path><path d="M515.59018613 255.85402732c-76.63666569-27.47873238-136.01282107-27.47873238-212.64948673 0-14.49882864 5.24719513-25.54555523 17.39859437-29.41190953 32.31167526l-8.69929719 33.554432h288.87190018l-8.69929719-33.554432c-3.86635431-14.91308089-14.91308089-27.06448014-29.41190954-32.31167526z" fill="#84B9FF" p-id="12181"></path><path d="M530.36518295 280.98533031c5.3852792 1.93317715 10.35630617 4.69485881 14.7749968 8.28504494l-0.27616817-1.10467267c-3.86635431-14.91308089-14.91308089-27.06448014-29.41190951-32.31167526-76.63666569-27.47873238-136.01282107-27.47873238-212.64948676 0-14.49882864 5.24719513-25.54555523 17.39859437-29.41190953 32.31167526l-0.27616816 1.10467267c4.41869063-3.45210207 9.3897176-6.35186779 14.7749968-8.28504494 87.54530818-31.34508668 155.20650851-31.34508668 242.47564853 0z" fill="#FF6B35" p-id="12182"></path><path d="M264.82949268 321.72013458h288.87190018v10.08013801H264.82949268z" fill="#5A97E8" p-id="12183"></path><path d="M392.00493247 321.72013458c0-9.52780169 7.7327086-17.26051028 17.26051029-17.26051028s17.26051028 7.7327086 17.26051029 17.26051028" fill="#FF6B35" p-id="12184"></path><path d="M409.26544276 878.0609022m-11.18481066 0a11.18481067 11.18481067 0 1 0 22.36962133 0 11.18481067 11.18481067 0 1 0-22.36962133 0Z" fill="#FFFFFF" p-id="12185"></path><path d="M344.22784 124.39798098c0-29.54999362 130.07520553-29.54999362 130.07520553 0v-32.44975935c0-29.54999362-130.07520553-29.54999362-130.07520553 0v32.44975935z" fill="#D0E4FF" p-id="12186"></path><path d="M662.09739747 947.79336375c-2.89976573-52.3338672-4.55677472-349.07656006 34.79718874-542.53235937l2.89976573-27.61681647 21.12686459-15.74158538c8.97546534-6.76612003 21.95536909-3.0378498 26.09789156 7.59462453l11.18481066 29.27382545c2.3474294 6.2137837 0.8285045 13.39415599-3.8663543 18.08901479l-18.22709887 18.22709885c-8.00887677 8.00887677-12.97990373 18.64135111-13.94649231 30.10232995-4.69485881 53.57662394-15.6035013 223.00579292 8.00887677 443.9403246 0.13808409 1.10467265 0 2.20934532-0.41425225 3.31401798-8.97546534 21.40303275-36.45419773 36.7303659-58.96190313 41.56330879-4.41869063 0.69042042-8.5612131-1.93317715-8.69929719-6.21378372z" fill="#5A97E8" p-id="12187"></path><path d="M686.67636412 438.53926821l-3.72827022-230.73850153s-4.69485881-52.88620353 43.49648592-62.55208928l10.08013801 160.45370363 1.65700899-0.13808408c4.83294288-0.41425225 8.42312903 3.59018613 8.83738127 8.42312902 1.10467265 13.67032415 2.3474294 39.63013162-3.59018616 44.6011586-2.07126124 8.00887677-3.59018613 13.39415599-8.14696084 17.12242619l-48.60559697 62.82825745z" fill="#84B9FF" p-id="12188"></path><path d="M726.44457982 145.2486774c7.18037229-0.69042042 11.59906291 4.83294288 11.87523108 12.01331517l8.69929719 156.7254334-11.737147-8.14696085-8.83738127-160.59178772z" fill="#FF6B35" p-id="12189"></path><path d="M678.66748735 438.12501597L674.93921712 207.38651443s3.31401797-52.47195126 51.5053627-62.13783703l8.83738127 160.59178772 1.65700899-0.13808409c5.66144737-0.8285045 10.21822208 3.45210207 10.08013801 8.28504494-0.41425225 13.80840823-3.45210207 39.21587937-9.52780169 44.32499042l-6.90420412 52.05769902-51.91961493 27.75490056z" fill="#D0E4FF" p-id="12190"></path><path d="M662.09739747 947.79336375c-2.89976573-52.3338672-16.57008987-349.07656006 22.78387358-542.53235937l2.89976572-27.61681647 21.1268646-15.74158538c8.97546534-6.76612003 21.95536909-3.0378498 26.09789155 7.59462453l11.18481066 29.27382545c2.3474294 6.2137837 0.8285045 13.39415599-3.8663543 18.08901479l-18.22709886 18.22709885c-8.00887677 8.00887677-12.97990373 18.64135111-13.94649232 30.10232995-4.69485881 53.57662394-15.6035013 223.00579292 8.00887678 443.9403246 0.13808409 1.10467265 0 2.20934532-0.41425225 3.31401798-8.97546534 21.40303275-24.71705073 35.07335691-46.94858797 41.56330879-4.28060655 0.96658859-8.5612131-1.93317715-8.69929719-6.21378372z" fill="#84B9FF" p-id="12191"></path><path d="M704.21304257 398.49488435a9.25163351 8.28504494 90 1 0 16.57008988 0 9.25163351 8.28504494 90 1 0-16.57008988 0Z" fill="#D0E4FF" p-id="12192"></path></svg>